<svg class="icon" viewBox="0 0 1024 1024" xmlns="http://www.w3.org/2000/svg" width="300" height="300"><defs><style/></defs><path d="M447.526 512l328.06-328.06c18.962-18.962 28.444-41.718 28.444-68.266 0-24.652-9.482-49.304-28.445-68.267s-41.718-28.444-68.266-28.444c-24.652 0-49.304 9.481-68.267 28.444L248.415 443.733c-18.963 15.17-28.445 41.719-28.445 68.267 0 22.756 9.482 47.407 26.549 66.37L642.844 972.8c18.963 18.963 41.719 28.444 66.37 28.444 26.549 0 49.305-9.481 66.371-26.548 18.963-18.963 28.445-41.718 28.445-68.266 0-24.652-9.482-49.304-28.445-68.267L447.525 512z"/></svg>