<svg class="icon" viewBox="0 0 1024 1024" xmlns="http://www.w3.org/2000/svg" width="300" height="300"><defs><style/></defs><path d="M775.585 445.63L383.052 51.2c-17.067-18.963-39.822-28.444-64.474-28.444-26.548 0-51.2 9.481-68.267 26.548-18.963 17.066-28.444 39.822-28.444 64.474 0 26.548 9.481 51.2 28.444 70.163L576.474 512l-328.06 326.163c-18.962 17.067-28.444 39.822-28.444 64.474 0 26.548 9.482 51.2 28.445 70.163s41.718 28.444 66.37 28.444 49.304-9.481 66.37-28.444L773.69 580.267c18.963-17.067 28.444-39.823 28.444-64.474 1.897-26.549-7.585-51.2-26.548-70.163z"/></svg>