<svg width="16" height="16" xmlns="http://www.w3.org/2000/svg"><path d="M4.667 2.011A6 6 0 018 1a6.007 6.007 0 016 6 6 6 0 01-3.996 5.655v-.044c.016-.014.031-.03.046-.045a1.48 1.48 0 00.434-1.046v-.137A5.042 5.042 0 0012.19 4.2a5.04 5.04 0 10-6.69 7.176v.144a1.48 1.48 0 00.48 1.09v.04A5.999 5.999 0 014.667 2.01z"/><path d="M9.343 11.86a.48.48 0 01-.34.14v2.52a.48.48 0 01-.48.48H7.46c.011 0-.004-.004-.034-.012-.075-.02-.241-.064-.305-.129a.48.48 0 01-.141-.34V12a.48.48 0 01-.48-.48V9.5a1 1 0 011-1h.984a1 1 0 011 1v2.02a.48.48 0 01-.137.335l-.004.004z"/><path d="M10.64 7c0 .525-.157 1.034-.445 1.465.183.302.289.656.289 1.035v.106a3.596 3.596 0 00.06-5.15A3.6 3.6 0 105.5 9.59V9.5c0-.384.108-.743.296-1.047A2.64 2.64 0 1110.64 7z"/><path d="M9 7a1 1 0 11-2 0 1 1 0 012 0z"/></svg>