<svg width="16" height="16" xmlns="http://www.w3.org/2000/svg"><path d="M8.648 6.648L13.29 2H10V1h5v5h-1V2.71L9.352 7.353l-.704-.704zm3.305 2.563a1.567 1.567 0 011.102.453c.11.11.232.224.367.344l.43.383c.15.135.291.276.421.421.13.146.253.295.368.446.114.15.2.312.257.484.058.172.092.344.102.516a1.568 1.568 0 01-.453 1.101c-.266.266-.505.5-.719.704a4.006 4.006 0 01-.664.515c-.23.14-.487.245-.773.313a4.696 4.696 0 01-1.008.109 6.157 6.157 0 01-1.75-.266A9.819 9.819 0 017.843 14a12.445 12.445 0 01-1.741-1.117 15.329 15.329 0 01-1.61-1.414c-.505-.51-.974-1.05-1.406-1.617a11.64 11.64 0 01-1.102-1.735 10.38 10.38 0 01-.718-1.773A6.005 6.005 0 011 4.625c0-.396.034-.734.102-1.016a2.63 2.63 0 01.312-.765c.14-.23.313-.45.516-.664.203-.214.44-.456.71-.727A1.567 1.567 0 013.743 1c.26 0 .51.07.75.21.24.142.472.313.696.517.223.203.43.416.617.64.187.224.364.417.53.578a1.567 1.567 0 01.453 1.102 1.4 1.4 0 01-.1.547 1.824 1.824 0 01-.25.43 2.983 2.983 0 01-.329.351c-.12.11-.229.214-.328.313a3.128 3.128 0 00-.258.289.46.46 0 00-.101.312c0 .063.047.162.14.297a5.3 5.3 0 00.391.484 24.386 24.386 0 001.211 1.266c.234.23.461.45.68.664.218.214.43.417.633.61.203.192.375.356.515.492.14.135.25.24.328.312a.534.534 0 00.696.063c.093-.068.19-.152.289-.25.099-.1.2-.209.304-.329.104-.12.224-.229.36-.328.135-.099.278-.185.43-.258a1.21 1.21 0 01.554-.101zM11.383 14c.318 0 .583-.029.797-.086a1.93 1.93 0 00.586-.266c.177-.12.343-.26.5-.421.156-.162.346-.352.57-.57.11-.11.164-.24.164-.391 0-.068-.042-.164-.125-.29a6.122 6.122 0 00-.313-.421 5.01 5.01 0 00-.43-.47c-.16-.155-.317-.299-.468-.429a4.322 4.322 0 00-.414-.32c-.125-.083-.224-.125-.297-.125a.545.545 0 00-.312.101 1.801 1.801 0 00-.29.25c-.093.1-.195.209-.304.329-.11.12-.23.229-.36.328-.13.099-.273.185-.43.258a1.208 1.208 0 01-.546.101 1.527 1.527 0 01-1.102-.46L4.883 7.39a1.537 1.537 0 01-.336-.5 1.655 1.655 0 01-.125-.602c0-.203.034-.383.101-.539.068-.156.151-.302.25-.438.1-.135.209-.252.329-.351.12-.099.229-.203.328-.313.099-.109.185-.205.258-.289a.429.429 0 00.101-.312c0-.068-.042-.164-.125-.29a5.085 5.085 0 00-.312-.413 6.791 6.791 0 00-.43-.469 6.787 6.787 0 00-.469-.43 5.674 5.674 0 00-.422-.32c-.13-.089-.226-.13-.289-.125a.542.542 0 00-.398.164 65.24 65.24 0 01-.57.563 3.073 3.073 0 00-.422.5 1.9 1.9 0 00-.258.586A3.377 3.377 0 002 4.601c0 .5.08 1.015.242 1.546a9.12 9.12 0 00.672 1.61c.287.541.63 1.068 1.031 1.578.401.51.831.997 1.29 1.46a13.205 13.205 0 003.046 2.298 8.37 8.37 0 001.586.664 5.526 5.526 0 001.516.242z"/></svg>