<svg width="16" height="16" xmlns="http://www.w3.org/2000/svg"><path d="M8 1a6.8 6.8 0 011.86.253 6.899 6.899 0 013.083 1.805 6.903 6.903 0 011.804 3.083C14.916 6.738 15 7.357 15 8s-.084 1.262-.253 1.86a6.9 6.9 0 01-.704 1.674 7.157 7.157 0 01-2.516 2.509 6.966 6.966 0 01-1.668.71A6.984 6.984 0 018 15a6.984 6.984 0 01-1.86-.246 7.098 7.098 0 01-1.674-.711 7.3 7.3 0 01-1.415-1.094 7.295 7.295 0 01-1.094-1.415 7.098 7.098 0 01-.71-1.675A6.985 6.985 0 011 8c0-.643.082-1.262.246-1.86a6.968 6.968 0 01.711-1.667 7.156 7.156 0 012.509-2.516 6.895 6.895 0 011.675-.704A6.808 6.808 0 018 1z"/></svg>