<svg width="16" height="16" xmlns="http://www.w3.org/2000/svg"><path clip-rule="evenodd" d="M11.956 6h.05a2.99 2.99 0 012.117.879 3.003 3.003 0 010 4.242 2.99 2.99 0 01-2.117.879h-1.995v-1h1.995a2.002 2.002 0 000-4h-.914l-.123-.857a2.49 2.49 0 00-2.126-2.122A2.478 2.478 0 006.23 5.5l-.333.762-.809-.189A2.49 2.49 0 004.523 6c-.662 0-1.297.263-1.764.732A2.503 2.503 0 004.523 11h2.494v1H4.523a3.486 3.486 0 01-2.628-1.16 3.502 3.502 0 01-.4-4.137A3.497 3.497 0 013.853 5.06c.486-.09.987-.077 1.468.041a3.486 3.486 0 013.657-2.06A3.479 3.479 0 0111.956 6zm-1.663 3.853L8.979 8.54v5.436h-.994v-5.4L6.707 9.854 6 9.146 8.146 7h.708L11 9.146l-.707.707z"/></svg>