<svg width="16" height="16" xmlns="http://www.w3.org/2000/svg"><path d="M7.293 9.006l-.88.88A2.484 2.484 0 004 8a2.488 2.488 0 00-2.413 1.886l-.88-.88L0 9.712l1.147 1.146-.147.146v1H0v.999h1v.053c.051.326.143.643.273.946L0 15.294.707 16l1.1-1.099A2.873 2.873 0 004 16a2.875 2.875 0 002.193-1.099L7.293 16 8 15.294l-1.273-1.292A3.92 3.92 0 007 13.036v-.067h1v-.965H7v-1l-.147-.146L8 9.712l-.707-.706zM4 9.006a1.5 1.5 0 011.5 1.499h-3A1.498 1.498 0 014 9.006zm2 3.997A2.217 2.217 0 014 15a2.22 2.22 0 01-2-1.998v-1.499h4v1.499z"/><path clip-rule="evenodd" d="M3.78 2L3 2.41V7h1V3.35l7.6 5.07L9 10.15v1.2l3.78-2.52V8l-9-6zM9 13.35v-1.202l5.6-3.728L7 3.35V2.147L15.78 8v.83L9 13.35z"/></svg>