<svg width="16" height="16" xmlns="http://www.w3.org/2000/svg"><path clip-rule="evenodd" d="M5 2.41L5.78 2l9 6v.83L9 12.683v-1.2l4.6-3.063L6 3.35V7H5V2.41z"/><path clip-rule="evenodd" d="M6.13 12.124c-.182.18-.322.379-.42.6a1.744 1.744 0 00-.145.715v.862a.685.685 0 01-.205.495.703.703 0 01-.496.204h-.865a.691.691 0 01-.497-.204.701.701 0 01-.205-.495v-.862c0-.258-.049-.496-.147-.716a1.913 1.913 0 00-.418-.6 2.525 2.525 0 01-.542-.773 2.255 2.255 0 01-.19-.927A2.386 2.386 0 012.332 9.2a2.404 2.404 0 01.87-.87A2.473 2.473 0 014.432 8a2.41 2.41 0 011.225.33 2.41 2.41 0 011.205 2.093c0 .332-.063.641-.19.927a2.525 2.525 0 01-.542.774zm-1.103.991H3.835v1.186c0 .043.016.08.049.114.033.033.07.048.115.048h.865a.156.156 0 00.114-.048.154.154 0 00.049-.114v-1.186z"/></svg>