<svg width="16" height="16" xmlns="http://www.w3.org/2000/svg"><path clip-rule="evenodd" d="M5.616 4.928a2.487 2.487 0 01-1.119.922c-.148.06-.458.138-.458.138v5.008a2.51 2.51 0 011.579 1.062c.273.412.419.895.419 1.388.008.343-.057.684-.19 1A2.485 2.485 0 013.5 15.984a2.48 2.48 0 01-1.388-.42A2.486 2.486 0 011.05 13c.095-.486.331-.932.68-1.283.349-.343.79-.579 1.269-.68V5.949a2.6 2.6 0 01-1.269-.68 2.503 2.503 0 01-.68-1.283 2.487 2.487 0 011.06-2.565A2.49 2.49 0 013.5 1a2.504 2.504 0 011.807.729 2.493 2.493 0 01.729 1.81c.002.494-.144.977-.42 1.389zm-.756 7.861a1.5 1.5 0 00-.552-.579 1.45 1.45 0 00-.77-.21 1.495 1.495 0 00-1.47 1.79 1.493 1.493 0 001.18 1.179c.288.058.586.03.86-.08.276-.117.512-.312.68-.56.15-.226.235-.49.249-.76a1.51 1.51 0 00-.177-.78zM2.708 4.741c.247.161.536.25.83.25.271 0 .538-.075.77-.211a1.514 1.514 0 00.729-1.36 1.513 1.513 0 00-.25-.76 1.551 1.551 0 00-.68-.559 1.49 1.49 0 00-.86-.08 1.494 1.494 0 00-1.179 1.18c-.058.288-.03.586.08.86.117.276.312.512.56.68zm10.329 6.296c.48.097.922.335 1.269.68.466.47.729 1.107.725 1.766.002.493-.144.977-.42 1.388a2.5 2.5 0 01-3.848.384 2.5 2.5 0 01.382-3.848 2.39 2.39 0 01.89-.37V7.489h1.002v3.548zm.557 3.508a1.493 1.493 0 00.191-1.888 1.551 1.551 0 00-.68-.56 1.49 1.49 0 00-.86-.08 1.493 1.493 0 00-1.179 1.18 1.49 1.49 0 00.08.86 1.497 1.497 0 002.448.49zM11.688 3.4L10 5.088l.707.707 1.688-1.688 1.687 1.688.707-.707L13.103 3.4l1.688-1.687-.708-.707-1.687 1.687-1.688-1.687-.707.707L11.688 3.4z"/></svg>