<svg xmlns="http://www.w3.org/2000/svg" viewBox="0 0 30 30"><path d="M9.545 3C5.39 3 2 6.39 2 10.545c0 3.738 2.9 7.54 5.66 10.574a55.12 55.12 0 005.512 5.25 1 1 0 00.025.02c.32.241.76.296 1.172.396A1 1 0 0015 27a1 1 0 00.63-.215c.413-.1.853-.155 1.173-.396a1 1 0 00.025-.02s2.752-2.215 5.512-5.25C25.1 18.085 28 14.283 28 10.545 28 6.39 24.61 3 20.455 3 17.45 3 15.833 4.591 15 5.566 14.167 4.591 12.55 3 9.545 3zm0 2c2.828 0 4.525 2.43 4.582 2.512a1 1 0 00.783.496 1 1 0 00.094.004 1 1 0 00.016 0 1 1 0 00.023-.002 1 1 0 00.076-.006 1 1 0 00.752-.49C15.926 7.434 17.625 5 20.455 5A5.53 5.53 0 0126 10.545c0 2.603-2.5 6.325-5.14 9.228-2.632 2.894-5.252 5.007-5.27 5.022A.97.97 0 0115 25a.97.97 0 01-.59-.205c-.018-.015-2.638-2.128-5.27-5.022C6.5 16.87 4 13.148 4 10.545A5.53 5.53 0 019.545 5z"/></svg>