<svg class="icon" width="96" height="96" viewBox="0 0 1024 1024" xmlns="http://www.w3.org/2000/svg"><path d="M971.674 445.235L594.842 53.35a122.266 122.266 0 00-176.538 0L41.574 445.235c-38.912 40.96-33.894 75.469-27.545 90.01a65.536 65.536 0 0064.614 38.912h55.296v301.465c0 68.404 49.152 133.12 119.091 133.12h160.36V689.46c0-34.201-5.12-53.248 29.798-53.248h126.771c35.021 0 29.799 19.047 29.799 53.248v319.079h160.46c69.837 0 119.092-64.512 119.092-133.12V574.157h55.193a65.536 65.536 0 0064.615-38.912c6.451-14.541 11.469-49.562-27.443-90.01z"/></svg>