<svg width="16" height="16" xmlns="http://www.w3.org/2000/svg"><circle cx="7.5" cy="7.5" r="1"/><path clip-rule="evenodd" d="M13.684 9.51l-.952-.31A5.497 5.497 0 0013 7.5c0-.595-.094-1.166-.268-1.7l.952-.31a6.525 6.525 0 010 4.02zm-.391-4.962l-.89.455a5.528 5.528 0 00-2.406-2.405l.455-.89a6.529 6.529 0 012.84 2.84zM9.509 1.317l-.309.95A5.495 5.495 0 007.5 2c-.595 0-1.166.094-1.7.268l-.31-.951A6.495 6.495 0 017.5 1c.701 0 1.377.111 2.01.317zm-4.96.39l.454.89a5.528 5.528 0 00-2.405 2.406l-.89-.455a6.528 6.528 0 012.84-2.84zM1.316 5.491A6.495 6.495 0 001 7.5c0 .701.111 1.377.317 2.01l.95-.31A5.495 5.495 0 012 7.5c0-.595.094-1.166.268-1.7l-.951-.31zm.39 4.96l.89-.454a5.528 5.528 0 002.406 2.405l-.455.89a6.529 6.529 0 01-2.84-2.84zm3.784 3.232l.309-.95A5.497 5.497 0 007.5 13c.595 0 1.166-.094 1.7-.268l.31.952A6.494 6.494 0 017.5 14a6.494 6.494 0 01-2.01-.316zm4.96-.39l-.454-.89a5.528 5.528 0 002.405-2.406l.89.455a6.53 6.53 0 01-2.84 2.84z"/></svg>