<svg width="16" height="16" xmlns="http://www.w3.org/2000/svg"><path clip-rule="evenodd" d="M8.185 1.083l-.558.004-5.909 4.037.004.828L7.63 9.915l.55.004 6.092-3.963.003-.836-6.09-4.037zm-5.293 4.45l5.021-3.43 5.176 3.43-5.176 3.368-5.021-3.368zm4.739 6.882L1.793 8.5h1.795l4.325 2.9 4.459-2.9h1.833l-.8.52a4.002 4.002 0 00-4.21 2.739l-1.013.66-.551-.004zm1.373.776l-1.09.71L3.587 11H1.793l5.838 3.915.55.004 1.02-.663a3.988 3.988 0 01-.197-1.065zm2.329-2.685a3 3 0 113.333 4.987 3 3 0 01-3.333-4.987zm1.698 3.817l1.79-2.387-.8-.6-1.48 1.974-.876-.7-.624.78 1.278 1.023.712-.09z"/></svg>