<svg class="icon" width="96" height="96" viewBox="0 0 1024 1024" xmlns="http://www.w3.org/2000/svg"><path d="M764.814 625.778a187.392 187.392 0 01-126.407-51.2 181.59 181.59 0 01-252.814 0 187.392 187.392 0 01-126.407 51.2A216.178 216.178 0 0156.889 398.222c0-125.667 151.723-341.333 151.723-341.333h606.776s151.723 215.666 151.723 341.333a216.178 216.178 0 01-202.297 227.556zm-374.727 0a189.212 189.212 0 00243.826 0 188.302 188.302 0 00219.42 17.066v225.11a98.19 98.19 0 01-97.507 99.157H268.174a98.19 98.19 0 01-97.507-98.873v-225.11a188.302 188.302 0 00219.42-17.35z"/></svg>