<svg class="icon" width="96" height="96" viewBox="0 0 1024 1024" xmlns="http://www.w3.org/2000/svg"><path d="M.01 352.832c0-18.816 6.656-34.816 20.096-47.872s29.568-19.648 48.448-19.648h68.544v305.792H68.554c-18.816 0-35.008-6.528-48.448-19.648A63.488 63.488 0 01.01 523.712v-170.88zM761.738 72.128c31.232-29.76 59.456-46.08 84.864-48.96s47.872 3.84 67.456 20.096c19.648 16.32 36.224 40.256 50.048 71.808s25.088 66.752 33.728 105.472c8.704 38.848 15.168 79.488 19.648 121.92 4.352 42.496 6.528 82.88 6.528 121.344s-2.688 76.864-8.192 115.328c-5.44 38.464-13.44 74.56-23.936 108.288s-22.784 63.232-37.056 88.704c-14.144 25.408-29.952 44.224-47.296 56.576a71.296 71.296 0 01-56.064 12.992c-19.968-3.584-40.896-17.792-62.592-42.432-20.992-24.64-49.536-45.12-85.376-61.44a742.272 742.272 0 00-117.504-41.344 1314.688 1314.688 0 00-128.96-27.2 17217.834 17217.834 0 00-119.744-18.56 1680.32 1680.32 0 01-90.88-15.808c-24.32-5.056-37.952-11.2-40.896-18.496V279.744c2.944-10.112 14.4-18.56 34.24-25.024a615.232 615.232 0 0176.16-18.496c30.912-5.824 65.792-12.16 104.576-19.008s78.4-16.32 118.656-28.352a808.064 808.064 0 00118.144-45.696 412.352 412.352 0 00104.448-71.04zM369.93 739.2c3.648 8.704 8 18.112 12.992 28.288 4.352 9.408 10.112 20.288 17.472 32.64 7.104 12.288 15.872 25.728 26.112 40.256a2514.458 2514.458 0 0137.504 54.976c12.672 19.2 22.336 36.608 28.8 52.224 6.528 15.552 8.512 28.352 6.016 38.656-2.496 10.112-12.928 15.168-31.04 15.168h-61.952c-14.528 0-27.968-2.688-40.256-8.192a118.208 118.208 0 01-35.392-25.088 312 312 0 01-34.816-42.944 874.112 874.112 0 01-38.656-62.08c-16.704-27.52-28.288-51.648-34.816-72.32a354.368 354.368 0 01-12.992-51.712 97.28 97.28 0 010-41.344c5.76.704 12.672 2.176 20.672 4.288 6.528 1.344 14.528 3.264 23.936 5.376 9.344 2.176 20.288 4.288 32.64 6.528 12.288 2.944 23.36 5.632 33.28 8.192A522.048 522.048 0 01369.93 739.2z"/></svg>