<svg class="icon" viewBox="0 0 1024 1024" xmlns="http://www.w3.org/2000/svg" width="300" height="300"><path d="M990.752 938.056L733.816 681.12c55.76-69.712 89.096-158.128 89.096-254.328 0-225.024-182.416-407.456-407.456-407.456C190.432 19.336 8 201.768 8 426.792s182.432 407.456 407.456 407.456c96.208 0 184.624-33.344 254.328-89.112l256.936 256.936c8.84 8.84 20.424 13.264 32.008 13.264 11.592 0 23.176-4.424 32.024-13.264 17.672-17.672 17.672-46.344 0-64.016zm-575.296-194.36c-175.024 0-316.904-141.88-316.904-316.904s141.88-316.904 316.904-316.904c175.032 0 316.904 141.88 316.904 316.904S590.488 743.696 415.456 743.696z"/></svg>