<svg class="icon" viewBox="0 0 1024 1024" xmlns="http://www.w3.org/2000/svg" width="200" height="200"><path d="M142.904 479.59c0-185.144 150.073-335.216 335.217-335.216 185.15 0 335.222 150.077 335.222 335.216 0 185.145-150.073 335.222-335.222 335.222-185.144 0-335.217-150.077-335.217-335.222zm582.477 306.14L903.22 963.529l51.538-51.554-177.131-177.177c58.608-68.7 94.008-157.814 94.008-255.201 0-217.334-176.18-393.513-393.518-393.513-217.339 0-393.513 176.179-393.513 393.513 0 217.338 176.18 393.523 393.513 393.523 93.675-.005 179.696-32.738 247.265-87.388z"/></svg>