<svg width="24" height="24" xmlns="http://www.w3.org/2000/svg"><path d="M21.007 8.222A3.738 3.738 0 0015.045 5.2a3.737 3.737 0 001.156 6.583 2.988 2.988 0 01-2.668 1.67h-2.99a4.456 4.456 0 00-2.989 1.165V7.4a3.737 3.737 0 10-1.494 0v9.117a3.776 3.776 0 101.816.099 2.99 2.99 0 012.668-1.667h2.99a4.484 4.484 0 004.223-3.039 3.736 3.736 0 003.25-3.687zM4.565 3.738a2.242 2.242 0 114.484 0 2.242 2.242 0 01-4.484 0zm4.484 16.441a2.242 2.242 0 11-4.484 0 2.242 2.242 0 014.484 0zm8.221-9.715a2.242 2.242 0 110-4.485 2.242 2.242 0 010 4.485z"/></svg>