<svg width="16" height="16" xmlns="http://www.w3.org/2000/svg"><path d="M3.26 8A1.37 1.37 0 11.52 8a1.37 1.37 0 012.74 0zm7.79 6.66a1.37 1.37 0 102.374-1.37 1.37 1.37 0 00-2.374 1.37zm2.37-11.95a1.37 1.37 0 10-2.37-1.373 1.37 1.37 0 002.37 1.373zM8.79 4.1a3.9 3.9 0 013.89 3.55h2a5.93 5.93 0 00-1.73-3.8 1.91 1.91 0 01-1.66-.12 2.001 2.001 0 01-.94-1.38 6 6 0 00-1.54-.2 5.83 5.83 0 00-2.61.61l1 1.73a3.94 3.94 0 011.59-.39zM4.88 8a3.93 3.93 0 011.66-3.2l-1-1.7A5.93 5.93 0 003.1 6.5a1.92 1.92 0 010 3 5.93 5.93 0 002.42 3.4l1-1.7A3.93 3.93 0 014.88 8zm3.91 3.91a4 4 0 01-1.65-.37l-1 1.73c.81.403 1.704.612 2.61.61.52 0 1.038-.067 1.54-.2a2 2 0 01.94-1.38 1.911 1.911 0 011.66-.12 5.93 5.93 0 001.73-3.8h-2a3.91 3.91 0 01-3.83 3.53z"/></svg>