<svg width="16" height="16" xmlns="http://www.w3.org/2000/svg"><path d="M5.46 14.11a1.46 1.46 0 01-.81-.25 1.38 1.38 0 01-.45-1.69L5.17 10H2.38a1.36 1.36 0 01-1.16-.61 1.35 1.35 0 01-.09-1.32C1.8 6.62 3 4 3.4 2.9A1.38 1.38 0 014.69 2h8.93A1.4 1.4 0 0115 3.4v3.51a1.38 1.38 0 01-1.38 1.38h-1.38L6.4 13.75a1.41 1.41 0 01-.94.36zM4.69 3a.39.39 0 00-.36.25C3.93 4.34 2.86 6.7 2 8.49a.39.39 0 000 .36.37.37 0 00.38.15h3.3l.52.68v.46l-1.09 2.44a.37.37 0 00.13.46.38.38 0 00.48 0l6.06-5.59.47-.13h1.37a.38.38 0 00.38-.41V3.4a.4.4 0 00-.38-.4H4.69z"/></svg>