<svg class="icon" width="96" height="96" viewBox="0 0 1024 1024" xmlns="http://www.w3.org/2000/svg"><path d="M345.763 201.655c23.813-29.027 53.189-47.912 80.492-60.17 13.139-5.898 26.896-10.092 40.59-12.89 15.122-3.09 30.256-4.467 44.417-4.553h1.475c14.16.086 29.293 1.463 44.417 4.553 13.694 2.798 27.451 6.992 40.59 12.89 27.304 12.258 56.68 31.143 80.49 60.17 18.92 23.064 34.2 52.305 41.966 89.354 5.514 26.3 7.274 55.944 4.764 84.953-2.38 27.533-8.61 54.831-19.124 78.637-5.731 12.974-13.662 28.107-24.632 45.047-8.782 13.558-19.43 28.127-32.337 43.444-2.282 4.034-10.18 20.395 5.69 29.87 18.242 10.895 62.59 37.639 103.817 62.848 27.008 16.514 53.83 33.085 73.069 45.34 14.011 8.926 30.844 20.164 44.925 34.572 15.694 16.056 27.712 35.671 29.183 59.825.433 7.097.631 15.473.665 24.23a667.064 667.064 0 01-.478 27.581c-.74 19.305-4.74 36.207-14.569 49.252-10.765 14.29-27.005 22.82-51.153 23.353h-.405c-94.846-.344-203.744-.516-327.617-.516s-232.77.172-327.616.516h-.404c-24.148-.533-40.388-9.063-51.152-23.353-9.828-13.045-13.83-29.947-14.57-49.252a667.115 667.115 0 01-.477-27.583c.032-8.755.233-17.13.664-24.228 1.472-24.154 13.49-43.767 29.184-59.825 14.082-14.408 30.913-25.647 44.925-34.573 19.237-12.253 46.057-28.822 73.062-45.336 41.229-25.21 85.58-51.955 103.824-62.85 15.869-9.477 7.971-25.837 5.69-29.87-12.906-15.318-23.555-29.887-32.337-43.445-10.971-16.94-18.903-32.073-24.632-45.047-10.515-23.806-16.744-51.104-19.125-78.637-2.51-29.009-.748-58.653 4.764-84.953 7.768-37.049 23.045-66.291 41.965-89.354"/></svg>