<svg class="icon" width="96" height="96" viewBox="0 0 1024 1024" xmlns="http://www.w3.org/2000/svg"><path d="M566.297 479.896c9.134-10.493 28.73-38.976 38.54-97.976 0 0 5.12 2.813 12.186-18.419 7.13-21.226 38.42-86.92 1.081-88.93 0 0 76.895-213.131-143.423-226.367h-.247C253.958 61.414 330.948 274.57 330.948 274.57c-37.401 2.01-6.08 67.698 1.018 88.936 7.098 21.226 12.098 18.015 12.098 18.015 13.173 78.937 43.507 103.374 43.507 103.374 4.046 90.933-131.476 89.732-251.796 142.62-54.93 24.039-82.078 56.497-95.56 84.954 94.296 139.005 253.673 230.375 434.377 230.375 4.905 0 9.81-.063 14.684-.215a322.61 322.61 0 01-64.954-194.958c0-112.04 56.471-210.628 141.969-267.745v-.031zm428.98 313.654l-31.352-25.221c2.592-18.71 2.718-37.598.626-56.301a3033.366 3033.366 0 0033.476-32.067c7.604-7.579 10.354-25.467-2.288-54.404-12.61-28.925-36.042-29.058-36.042-29.058l-40.107 3.837a226.045 226.045 0 00-38.261-39.114c.133-6.22.828-37.534.759-47.18-.095-10.752-10.835-25.329-40.246-36.637-29.418-11.302-45.903 5.323-45.903 5.323l-25.272 31.118a224.092 224.092 0 00-55.017-.48l1.517-.67s-26.03-27.092-33.698-34.627c-7.66-7.478-25.524-10.07-54.259 2.927-28.666 13.02-28.501 36.535-28.501 36.535l4.31 40.201a222.613 222.613 0 00-39.676 38.748c-6.94-.234-37.32-1.315-46.744-1.346-10.708-.083-25.372 10.537-37.022 39.879-11.599 29.342 4.753 46.111 4.753 46.111l31.353 26.334.354-.696a223.232 223.232 0 00-.949 53.394c-.063.031-27.01 26.112-34.487 33.823-7.471 7.712-10.038 25.62 2.952 54.424 12.99 28.748 36.428 28.533 36.428 28.533l38.608-4.16a227.448 227.448 0 0042.794 43.457c0 2.542-.159 37.781.094 48.141.278 10.74 11.27 25.132 40.897 35.872 29.614 10.77 45.872-6.22 45.872-6.22l25.088-32.08c16.34 1.847 32.742 1.96 49 .197 2.44 2.591 25.903 27.547 33.122 34.746 7.579 7.548 25.41 10.322 54.228-2.376 28.817-12.718 28.918-36.22 28.918-36.22l-3.932-40.486a223.087 223.087 0 0040.948-40.36l-.91 2.34s37.47.588 48.172.442c10.708-.17 25.157-11.074 36.175-40.663 10.954-29.576-5.778-46.017-5.778-46.017zm-124.75 38.38c-51.858 71.58-151.717 87.464-223.106 35.493-71.32-51.997-87.198-152.184-35.31-223.763 51.782-71.668 151.641-87.546 223.068-35.543 71.358 52.028 87.198 152.222 35.347 223.813zM720.105 616.31c-48.912 8.325-88.007 45.385-99.056 93.898-11.05 48.514 8.122 98.924 48.576 127.728a122.33 122.33 0 00136.23 3.856c42.01-26.485 63.981-75.725 55.67-124.789-11.334-66.983-74.652-112.058-141.42-100.693z"/></svg>