<svg class="icon" width="96" height="96" viewBox="0 0 1024 1024" xmlns="http://www.w3.org/2000/svg"><path d="M301.568 228.557l414.72-133.12c56.32-15.36 112.64 10.24 128 66.56l20.48 66.56h-563.2zm0 0l414.72-133.12c56.32-15.36 112.64 10.24 128 66.56l20.48 66.56h-563.2zM183.808 256h655.36c56.32 0 102.4 46.08 102.4 102.4v471.04c0 56.32-46.08 102.4-102.4 102.4h-655.36c-56.32 0-102.4-46.08-102.4-102.4V358.4c0-56.32 46.08-102.4 102.4-102.4zm537.6 209.92h220.16v256h-220.16c-71.68 0-128-56.32-128-128s56.32-128 128-128zm-56.32 126.157a56.32 56.32 0 10112.64 0 56.32 56.32 0 10-112.64 0z"/></svg>